<svg id="visual" viewBox="0 0 900 450" width="900" height="450" xmlns="http://www.w3.org/2000/svg" xmlns:xlink="http://www.w3.org/1999/xlink" version="1.1"><path d="M0 352L11.5 350.8C23 349.7 46 347.3 69 345.2C92 343 115 341 138.2 344.2C161.3 347.3 184.7 355.7 207.8 359.7C231 363.7 254 363.3 277 360.7C300 358 323 353 346 349.3C369 345.7 392 343.3 415.2 340.5C438.3 337.7 461.7 334.3 484.8 332C508 329.7 531 328.3 554 332.8C577 337.3 600 347.7 623 353.2C646 358.7 669 359.3 692.2 354C715.3 348.7 738.7 337.3 761.8 331.7C785 326 808 326 831 329.8C854 333.7 877 341.3 888.5 345.2L900 349L900 451L888.5 451C877 451 854 451 831 451C808 451 785 451 761.8 451C738.7 451 715.3 451 692.2 451C669 451 646 451 623 451C600 451 577 451 554 451C531 451 508 451 484.8 451C461.7 451 438.3 451 415.2 451C392 451 369 451 346 451C323 451 300 451 277 451C254 451 231 451 207.8 451C184.7 451 161.3 451 138.2 451C115 451 92 451 69 451C46 451 23 451 11.5 451L0 451Z" fill="#8ee4af"></path><path d="M0 367L11.5 363.8C23 360.7 46 354.3 69 354.7C92 355 115 362 138.2 367C161.3 372 184.7 375 207.8 375.2C231 375.3 254 372.7 277 369.8C300 367 323 364 346 366.2C369 368.3 392 375.7 415.2 373.8C438.3 372 461.7 361 484.8 357.2C508 353.3 531 356.7 554 358.3C577 360 600 360 623 361.2C646 362.3 669 364.7 692.2 363.5C715.3 362.3 738.7 357.7 761.8 360.3C785 363 808 373 831 375C854 377 877 371 888.5 368L900 365L900 451L888.5 451C877 451 854 451 831 451C808 451 785 451 761.8 451C738.7 451 715.3 451 692.2 451C669 451 646 451 623 451C600 451 577 451 554 451C531 451 508 451 484.8 451C461.7 451 438.3 451 415.2 451C392 451 369 451 346 451C323 451 300 451 277 451C254 451 231 451 207.8 451C184.7 451 161.3 451 138.2 451C115 451 92 451 69 451C46 451 23 451 11.5 451L0 451Z" fill="#77d0a5"></path><path d="M0 395L11.5 391.2C23 387.3 46 379.7 69 375.5C92 371.3 115 370.7 138.2 372.3C161.3 374 184.7 378 207.8 381.3C231 384.7 254 387.3 277 386.2C300 385 323 380 346 376.5C369 373 392 371 415.2 371C438.3 371 461.7 373 484.8 376.8C508 380.7 531 386.3 554 386.5C577 386.7 600 381.3 623 379.3C646 377.3 669 378.7 692.2 382.5C715.3 386.3 738.7 392.7 761.8 395.2C785 397.7 808 396.3 831 392.2C854 388 877 381 888.5 377.5L900 374L900 451L888.5 451C877 451 854 451 831 451C808 451 785 451 761.8 451C738.7 451 715.3 451 692.2 451C669 451 646 451 623 451C600 451 577 451 554 451C531 451 508 451 484.8 451C461.7 451 438.3 451 415.2 451C392 451 369 451 346 451C323 451 300 451 277 451C254 451 231 451 207.8 451C184.7 451 161.3 451 138.2 451C115 451 92 451 69 451C46 451 23 451 11.5 451L0 451Z" fill="#61bd9a"></path><path d="M0 393L11.5 395.2C23 397.3 46 401.7 69 401.2C92 400.7 115 395.3 138.2 394C161.3 392.7 184.7 395.3 207.8 397.5C231 399.7 254 401.3 277 399.8C300 398.3 323 393.7 346 392.5C369 391.3 392 393.7 415.2 396.7C438.3 399.7 461.7 403.3 484.8 403.8C508 404.3 531 401.7 554 401.2C577 400.7 600 402.3 623 402.3C646 402.3 669 400.7 692.2 398.5C715.3 396.3 738.7 393.7 761.8 395.8C785 398 808 405 831 405.5C854 406 877 400 888.5 397L900 394L900 451L888.5 451C877 451 854 451 831 451C808 451 785 451 761.8 451C738.7 451 715.3 451 692.2 451C669 451 646 451 623 451C600 451 577 451 554 451C531 451 508 451 484.8 451C461.7 451 438.3 451 415.2 451C392 451 369 451 346 451C323 451 300 451 277 451C254 451 231 451 207.8 451C184.7 451 161.3 451 138.2 451C115 451 92 451 69 451C46 451 23 451 11.5 451L0 451Z" fill="#4ca98f"></path><path d="M0 426L11.5 426.3C23 426.7 46 427.3 69 427.7C92 428 115 428 138.2 427.3C161.3 426.7 184.7 425.3 207.8 423.3C231 421.3 254 418.7 277 416.5C300 414.3 323 412.7 346 414.2C369 415.7 392 420.3 415.2 422.2C438.3 424 461.7 423 484.8 421.7C508 420.3 531 418.7 554 417.7C577 416.7 600 416.3 623 415.3C646 414.3 669 412.7 692.2 412.8C715.3 413 738.7 415 761.8 414.8C785 414.7 808 412.3 831 413.3C854 414.3 877 418.7 888.5 420.8L900 423L900 451L888.5 451C877 451 854 451 831 451C808 451 785 451 761.8 451C738.7 451 715.3 451 692.2 451C669 451 646 451 623 451C600 451 577 451 554 451C531 451 508 451 484.8 451C461.7 451 438.3 451 415.2 451C392 451 369 451 346 451C323 451 300 451 277 451C254 451 231 451 207.8 451C184.7 451 161.3 451 138.2 451C115 451 92 451 69 451C46 451 23 451 11.5 451L0 451Z" fill="#379683"></path></svg>