<svg id="visual" viewBox="0 0 960 540" width="960" height="540" xmlns="http://www.w3.org/2000/svg" xmlns:xlink="http://www.w3.org/1999/xlink" version="1.1"><path d="M0 28L14.5 28.8C29 29.7 58 31.3 87.2 31.3C116.3 31.3 145.7 29.7 174.8 30.7C204 31.7 233 35.3 262 37.2C291 39 320 39 349 40.8C378 42.7 407 46.3 436.2 49.8C465.3 53.3 494.7 56.7 523.8 59.3C553 62 582 64 611 62.3C640 60.7 669 55.3 698 50.8C727 46.3 756 42.7 785.2 40.8C814.3 39 843.7 39 872.8 36.3C902 33.7 931 28.3 945.5 25.7L960 23L960 0L945.5 0C931 0 902 0 872.8 0C843.7 0 814.3 0 785.2 0C756 0 727 0 698 0C669 0 640 0 611 0C582 0 553 0 523.8 0C494.7 0 465.3 0 436.2 0C407 0 378 0 349 0C320 0 291 0 262 0C233 0 204 0 174.8 0C145.7 0 116.3 0 87.2 0C58 0 29 0 14.5 0L0 0Z" fill="#379683"></path><path d="M0 66L14.5 67.8C29 69.7 58 73.3 87.2 76.8C116.3 80.3 145.7 83.7 174.8 87.2C204 90.7 233 94.3 262 98C291 101.7 320 105.3 349 109.8C378 114.3 407 119.7 436.2 118.8C465.3 118 494.7 111 523.8 111C553 111 582 118 611 113.5C640 109 669 93 698 90.3C727 87.7 756 98.3 785.2 99.2C814.3 100 843.7 91 872.8 88.3C902 85.7 931 89.3 945.5 91.2L960 93L960 21L945.5 23.7C931 26.3 902 31.7 872.8 34.3C843.7 37 814.3 37 785.2 38.8C756 40.7 727 44.3 698 48.8C669 53.3 640 58.7 611 60.3C582 62 553 60 523.8 57.3C494.7 54.7 465.3 51.3 436.2 47.8C407 44.3 378 40.7 349 38.8C320 37 291 37 262 35.2C233 33.3 204 29.7 174.8 28.7C145.7 27.7 116.3 29.3 87.2 29.3C58 29.3 29 27.7 14.5 26.8L0 26Z" fill="#409f88"></path><path d="M0 87L14.5 90.7C29 94.3 58 101.7 87.2 108C116.3 114.3 145.7 119.7 174.8 123.3C204 127 233 129 262 129C291 129 320 127 349 130.5C378 134 407 143 436.2 146.7C465.3 150.3 494.7 148.7 523.8 150.5C553 152.3 582 157.7 611 151.3C640 145 669 127 698 124.3C727 121.7 756 134.3 785.2 136.2C814.3 138 843.7 129 872.8 123.5C902 118 931 116 945.5 115L960 114L960 91L945.5 89.2C931 87.3 902 83.7 872.8 86.3C843.7 89 814.3 98 785.2 97.2C756 96.3 727 85.7 698 88.3C669 91 640 107 611 111.5C582 116 553 109 523.8 109C494.7 109 465.3 116 436.2 116.8C407 117.7 378 112.3 349 107.8C320 103.3 291 99.7 262 96C233 92.3 204 88.7 174.8 85.2C145.7 81.7 116.3 78.3 87.2 74.8C58 71.3 29 67.7 14.5 65.8L0 64Z" fill="#49a78d"></path><path d="M0 249L14.5 254.5C29 260 58 271 87.2 263C116.3 255 145.7 228 174.8 219C204 210 233 219 262 219C291 219 320 210 349 219.8C378 229.7 407 258.3 436.2 272.7C465.3 287 494.7 287 523.8 287C553 287 582 287 611 284.3C640 281.7 669 276.3 698 262C727 247.7 756 224.3 785.2 210C814.3 195.7 843.7 190.3 872.8 197.5C902 204.7 931 224.3 945.5 234.2L960 244L960 112L945.5 113C931 114 902 116 872.8 121.5C843.7 127 814.3 136 785.2 134.2C756 132.3 727 119.7 698 122.3C669 125 640 143 611 149.3C582 155.7 553 150.3 523.8 148.5C494.7 146.7 465.3 148.3 436.2 144.7C407 141 378 132 349 128.5C320 125 291 127 262 127C233 127 204 125 174.8 121.3C145.7 117.7 116.3 112.3 87.2 106C58 99.7 29 92.3 14.5 88.7L0 85Z" fill="#53b093"></path><path d="M0 298L14.5 304.3C29 310.7 58 323.3 87.2 325.2C116.3 327 145.7 318 174.8 315.3C204 312.7 233 316.3 262 325.3C291 334.3 320 348.7 349 357.7C378 366.7 407 370.3 436.2 366.7C465.3 363 494.7 352 523.8 346.5C553 341 582 341 611 342C640 343 669 345 698 345C727 345 756 343 785.2 335.7C814.3 328.3 843.7 315.7 872.8 308.5C902 301.3 931 299.7 945.5 298.8L960 298L960 242L945.5 232.2C931 222.3 902 202.7 872.8 195.5C843.7 188.3 814.3 193.7 785.2 208C756 222.3 727 245.7 698 260C669 274.3 640 279.7 611 282.3C582 285 553 285 523.8 285C494.7 285 465.3 285 436.2 270.7C407 256.3 378 227.7 349 217.8C320 208 291 217 262 217C233 217 204 208 174.8 217C145.7 226 116.3 253 87.2 261C58 269 29 258 14.5 252.5L0 247Z" fill="#5cb998"></path><path d="M0 357L14.5 363.3C29 369.7 58 382.3 87.2 382.3C116.3 382.3 145.7 369.7 174.8 367C204 364.3 233 371.7 262 379.8C291 388 320 397 349 399.7C378 402.3 407 398.7 436.2 390.5C465.3 382.3 494.7 369.7 523.8 364.3C553 359 582 361 611 369.2C640 377.3 669 391.7 698 393.5C727 395.3 756 384.7 785.2 373.8C814.3 363 843.7 352 872.8 348.3C902 344.7 931 348.3 945.5 350.2L960 352L960 296L945.5 296.8C931 297.7 902 299.3 872.8 306.5C843.7 313.7 814.3 326.3 785.2 333.7C756 341 727 343 698 343C669 343 640 341 611 340C582 339 553 339 523.8 344.5C494.7 350 465.3 361 436.2 364.7C407 368.3 378 364.7 349 355.7C320 346.7 291 332.3 262 323.3C233 314.3 204 310.7 174.8 313.3C145.7 316 116.3 325 87.2 323.2C58 321.3 29 308.7 14.5 302.3L0 296Z" fill="#66c19c"></path><path d="M0 384L14.5 388.5C29 393 58 402 87.2 405.7C116.3 409.3 145.7 407.7 174.8 405C204 402.3 233 398.7 262 407.7C291 416.7 320 438.3 349 445.5C378 452.7 407 445.3 436.2 435.5C465.3 425.7 494.7 413.3 523.8 408C553 402.7 582 404.3 611 409.7C640 415 669 424 698 424C727 424 756 415 785.2 406.8C814.3 398.7 843.7 391.3 872.8 387.7C902 384 931 384 945.5 384L960 384L960 350L945.5 348.2C931 346.3 902 342.7 872.8 346.3C843.7 350 814.3 361 785.2 371.8C756 382.7 727 393.3 698 391.5C669 389.7 640 375.3 611 367.2C582 359 553 357 523.8 362.3C494.7 367.7 465.3 380.3 436.2 388.5C407 396.7 378 400.3 349 397.7C320 395 291 386 262 377.8C233 369.7 204 362.3 174.8 365C145.7 367.7 116.3 380.3 87.2 380.3C58 380.3 29 367.7 14.5 361.3L0 355Z" fill="#6fcaa1"></path><path d="M0 401L14.5 406.3C29 411.7 58 422.3 87.2 426.8C116.3 431.3 145.7 429.7 174.8 429.7C204 429.7 233 431.3 262 438.5C291 445.7 320 458.3 349 462C378 465.7 407 460.3 436.2 454C465.3 447.7 494.7 440.3 523.8 436.7C553 433 582 433 611 435.7C640 438.3 669 443.7 698 443.7C727 443.7 756 438.3 785.2 433C814.3 427.7 843.7 422.3 872.8 419.7C902 417 931 417 945.5 417L960 417L960 382L945.5 382C931 382 902 382 872.8 385.7C843.7 389.3 814.3 396.7 785.2 404.8C756 413 727 422 698 422C669 422 640 413 611 407.7C582 402.3 553 400.7 523.8 406C494.7 411.3 465.3 423.7 436.2 433.5C407 443.3 378 450.7 349 443.5C320 436.3 291 414.7 262 405.7C233 396.7 204 400.3 174.8 403C145.7 405.7 116.3 407.3 87.2 403.7C58 400 29 391 14.5 386.5L0 382Z" fill="#79d3a6"></path><path d="M0 438L14.5 442.5C29 447 58 456 87.2 458.8C116.3 461.7 145.7 458.3 174.8 454.8C204 451.3 233 447.7 262 456.7C291 465.7 320 487.3 349 492.7C378 498 407 487 436.2 480.7C465.3 474.3 494.7 472.7 523.8 470C553 467.3 582 463.7 611 462.7C640 461.7 669 463.3 698 461.5C727 459.7 756 454.3 785.2 450.8C814.3 447.3 843.7 445.7 872.8 444.8C902 444 931 444 945.5 444L960 444L960 415L945.5 415C931 415 902 415 872.8 417.7C843.7 420.3 814.3 425.7 785.2 431C756 436.3 727 441.7 698 441.7C669 441.7 640 436.3 611 433.7C582 431 553 431 523.8 434.7C494.7 438.3 465.3 445.7 436.2 452C407 458.3 378 463.7 349 460C320 456.3 291 443.7 262 436.5C233 429.3 204 427.7 174.8 427.7C145.7 427.7 116.3 429.3 87.2 424.8C58 420.3 29 409.7 14.5 404.3L0 399Z" fill="#84dbaa"></path><path d="M0 541L14.5 541C29 541 58 541 87.2 541C116.3 541 145.7 541 174.8 541C204 541 233 541 262 541C291 541 320 541 349 541C378 541 407 541 436.2 541C465.3 541 494.7 541 523.8 541C553 541 582 541 611 541C640 541 669 541 698 541C727 541 756 541 785.2 541C814.3 541 843.7 541 872.8 541C902 541 931 541 945.5 541L960 541L960 442L945.5 442C931 442 902 442 872.8 442.8C843.7 443.7 814.3 445.3 785.2 448.8C756 452.3 727 457.7 698 459.5C669 461.3 640 459.7 611 460.7C582 461.7 553 465.3 523.8 468C494.7 470.7 465.3 472.3 436.2 478.7C407 485 378 496 349 490.7C320 485.3 291 463.7 262 454.7C233 445.7 204 449.3 174.8 452.8C145.7 456.3 116.3 459.7 87.2 456.8C58 454 29 445 14.5 440.5L0 436Z" fill="#8ee4af"></path></svg>